<?xml version="1.0"?><svg width="640" height="480" xmlns="http://www.w3.org/2000/svg">
 <title>Running Icon on Transparent Background</title>
 <metadata id="metadata18081">image/svg+xmlPublic Domainclker.comMohamed Ibrahimmap symbolsmap symbolsimage/svg+xmlMap SymbolsMohamed IbrahimPublic DomainMap Symbols</metadata>
 <g>
  <title>Layer 1</title>
  <path d="m264.847198,152.245209c17.784332,0 32.206696,-14.4711 32.206696,-32.255432c0,-17.784332 -14.422363,-32.206696 -32.206696,-32.206696c-17.833069,0 -32.255432,14.422363 -32.255432,32.206696c0,17.784332 14.422363,32.255432 32.255432,32.255432" id="path8248" fill-rule="nonzero" fill="#000000"/>
  <path d="m326.212585,184.382568l37.55603,44.135605c2.226257,2.783783 5.58432,4.491791 9.379852,4.491791c6.715424,0 12.153595,-5.53093 12.153595,-12.324249c0,-3.71167 -1.569244,-7.015778 -4.087646,-9.279938l-40.512604,-47.438965c-2.226257,-2.709854 -5.58429,-4.454483 -9.379852,-4.454483l-58.615265,-0.037323c-4.30722,0 -8.175385,1.781952 -11.022522,4.565704l-37.373291,38.011185l-30.98674,-31.441086c-2.190277,-1.893173 -5.000778,-3.006973 -8.065979,-3.006973c-6.93486,0 -12.51915,5.716827 -12.51915,12.769943c0,3.080856 1.022446,5.864639 2.810486,8.092239l37.337326,38.270218c11.350601,11.507584 20.475021,1.744614 20.475021,1.744614l22.920715,-23.422714l35.803955,42.131195l-32.81134,33.37085c0,0 -6.934235,6.533508 -2.955902,19.525116l18.394867,83.408447c1.459991,7.238953 7.737152,12.695282 15.255524,12.695282c8.650238,0 15.621094,-7.127045 15.621094,-15.887421c0,-1.410156 -0.146118,-2.746429 -0.474182,-4.008789l-15.146912,-68.412384l37.301331,-36.860046l32.081116,36.377808c0,0 5.18277,6.496246 18.942444,6.013214l65.075256,0.111237c7.26297,0.111969 13.868988,-4.936707 15.475067,-12.434753c1.934845,-8.537903 -3.248016,-16.927307 -11.678772,-18.819672c-1.314606,-0.297119 -2.628418,-0.408386 -3.90564,-0.371796l-55.950867,0.14859l-82.740631,-97.551208l21.643616,-0.111237z" id="path8256" fill-rule="nonzero" fill="#000000"/>
 </g>
</svg>